<?xml version="1.0" encoding="UTF-8" standalone="no"?>
<!DOCTYPE svg PUBLIC "-//W3C//DTD SVG 1.1//EN" "http://www.w3.org/Graphics/SVG/1.1/DTD/svg11.dtd">
<svg width="100%" height="100%" viewBox="0 0 842 596" version="1.1" xmlns="http://www.w3.org/2000/svg" xmlns:xlink="http://www.w3.org/1999/xlink" xml:space="preserve" xmlns:serif="http://www.serif.com/" style="fill-rule:evenodd;clip-rule:evenodd;stroke-linejoin:round;stroke-miterlimit:2;">
    <g transform="matrix(279,0,0,279,104.406,303.788)">
        <path d="M0.006,-0.763L0.178,-0.763L0.417,-0.181L0.657,-0.763L0.829,-0.763L0.494,-0L0.341,-0L0.006,-0.763Z" style="fill-rule:nonzero;"/>
    </g>
    <g transform="matrix(279,0,0,279,297.743,303.788)">
        <path d="M0.08,-0.763L0.234,-0.763L0.234,-0.343C0.234,-0.308 0.239,-0.278 0.249,-0.251C0.258,-0.224 0.272,-0.201 0.291,-0.183C0.309,-0.164 0.333,-0.15 0.36,-0.14C0.388,-0.131 0.42,-0.126 0.457,-0.126C0.493,-0.126 0.526,-0.131 0.553,-0.14C0.581,-0.15 0.605,-0.164 0.623,-0.183C0.642,-0.201 0.656,-0.224 0.666,-0.251C0.675,-0.278 0.68,-0.308 0.68,-0.343L0.68,-0.763L0.834,-0.763L0.834,-0.324C0.834,-0.274 0.826,-0.229 0.809,-0.188C0.792,-0.146 0.768,-0.111 0.735,-0.082C0.703,-0.053 0.664,-0.03 0.617,-0.014C0.57,0.002 0.517,0.01 0.457,0.01C0.397,0.01 0.344,0.002 0.297,-0.014C0.25,-0.03 0.211,-0.053 0.179,-0.082C0.146,-0.111 0.122,-0.146 0.105,-0.188C0.088,-0.229 0.08,-0.274 0.08,-0.324L0.08,-0.763Z" style="fill-rule:nonzero;"/>
    </g>
    <g transform="matrix(279,0,0,279,513.284,303.788)">
        <path d="M0.338,-0.627L0.057,-0.627L0.057,-0.763L0.775,-0.763L0.775,-0.627L0.493,-0.627L0.493,-0L0.338,-0L0.338,-0.627Z" style="fill-rule:nonzero;"/>
    </g>
    <g transform="matrix(391.98,0,0,278,104.406,540.788)">
        <path d="M0.338,-0.627L0.057,-0.627L0.057,-0.763L0.775,-0.763L0.775,-0.627L0.493,-0.627L0.493,-0L0.338,-0L0.338,-0.627Z" style="fill-rule:nonzero;"/>
    </g>
    <g transform="matrix(391.98,0,0,278,364.894,540.788)">
        <path d="M0.108,-0.763L0.497,-0.763C0.555,-0.763 0.606,-0.757 0.649,-0.745C0.692,-0.733 0.728,-0.715 0.756,-0.692C0.784,-0.669 0.805,-0.641 0.819,-0.607C0.833,-0.574 0.84,-0.537 0.84,-0.495C0.84,-0.466 0.836,-0.439 0.83,-0.414C0.823,-0.388 0.812,-0.365 0.798,-0.343C0.784,-0.322 0.766,-0.303 0.745,-0.286C0.723,-0.269 0.698,-0.255 0.669,-0.244L0.835,-0L0.646,-0L0.502,-0.217L0.498,-0.217L0.263,-0.217L0.263,-0L0.108,-0L0.108,-0.763ZM0.5,-0.351C0.53,-0.351 0.555,-0.354 0.577,-0.361C0.599,-0.368 0.618,-0.378 0.633,-0.39C0.647,-0.403 0.658,-0.418 0.666,-0.435C0.673,-0.453 0.677,-0.473 0.677,-0.495C0.677,-0.537 0.662,-0.57 0.633,-0.594C0.604,-0.617 0.559,-0.628 0.5,-0.628L0.263,-0.628L0.263,-0.351L0.5,-0.351Z" style="fill-rule:nonzero;"/>
    </g>
</svg>
